<mxfile host="app.diagrams.net" agent="Mozilla/5.0 (Windows NT 10.0; Win64; x64) AppleWebKit/537.36 (KHTML, like Gecko) Chrome/135.0.0.0 Safari/537.36" version="26.2.8">
  <diagram name="Página-1" id="YRS9eaXxivqjA7LVH49j">
    <mxGraphModel dx="302" dy="826" grid="0" gridSize="10" guides="1" tooltips="1" connect="1" arrows="1" fold="1" page="0" pageScale="1" pageWidth="827" pageHeight="1169" math="0" shadow="0">
      <root>
        <mxCell id="0" />
        <mxCell id="1" parent="0" />
        <mxCell id="Gg9Wshna6DesjAM7AStG-1" value="Cliente" style="shape=umlActor;verticalLabelPosition=bottom;verticalAlign=top;html=1;outlineConnect=0;labelBackgroundColor=none;fillColor=#F2CC8F;strokeColor=#E07A5F;fontColor=#393C56;" parent="1" vertex="1">
          <mxGeometry x="52" y="85" width="30" height="60" as="geometry" />
        </mxCell>
        <mxCell id="Gg9Wshna6DesjAM7AStG-2" value="Administrador" style="shape=umlActor;verticalLabelPosition=bottom;verticalAlign=top;html=1;outlineConnect=0;labelBackgroundColor=none;fillColor=#F2CC8F;strokeColor=#E07A5F;fontColor=#393C56;" parent="1" vertex="1">
          <mxGeometry x="721" y="134" width="30" height="60" as="geometry" />
        </mxCell>
        <mxCell id="Gg9Wshna6DesjAM7AStG-8" value="Ver lista de postres disponibles" style="ellipse;whiteSpace=wrap;html=1;labelBackgroundColor=none;fillColor=#F2CC8F;strokeColor=#E07A5F;fontColor=#393C56;" parent="1" vertex="1">
          <mxGeometry x="195" y="32" width="120" height="80" as="geometry" />
        </mxCell>
        <mxCell id="Gg9Wshna6DesjAM7AStG-9" value="Filtrar y buscar postres" style="ellipse;whiteSpace=wrap;html=1;labelBackgroundColor=none;fillColor=#F2CC8F;strokeColor=#E07A5F;fontColor=#393C56;" parent="1" vertex="1">
          <mxGeometry x="190" y="220" width="120" height="80" as="geometry" />
        </mxCell>
        <mxCell id="Gg9Wshna6DesjAM7AStG-10" value="Realizar un pedido de postres" style="ellipse;whiteSpace=wrap;html=1;labelBackgroundColor=none;fillColor=#F2CC8F;strokeColor=#E07A5F;fontColor=#393C56;" parent="1" vertex="1">
          <mxGeometry x="171" y="124" width="120" height="80" as="geometry" />
        </mxCell>
        <mxCell id="Gg9Wshna6DesjAM7AStG-13" value="Registrarse o iniciar sesión" style="ellipse;whiteSpace=wrap;html=1;labelBackgroundColor=none;fillColor=#F2CC8F;strokeColor=#E07A5F;fontColor=#393C56;" parent="1" vertex="1">
          <mxGeometry x="273" y="-103" width="120" height="80" as="geometry" />
        </mxCell>
        <mxCell id="Gg9Wshna6DesjAM7AStG-14" value="Agregar, editar y eliminar postres" style="ellipse;whiteSpace=wrap;html=1;labelBackgroundColor=none;fillColor=#F2CC8F;strokeColor=#E07A5F;fontColor=#393C56;" parent="1" vertex="1">
          <mxGeometry x="389" y="32" width="120" height="80" as="geometry" />
        </mxCell>
        <mxCell id="Gg9Wshna6DesjAM7AStG-15" value="Gestionar inventario" style="ellipse;whiteSpace=wrap;html=1;labelBackgroundColor=none;fillColor=#F2CC8F;strokeColor=#E07A5F;fontColor=#393C56;" parent="1" vertex="1">
          <mxGeometry x="393" y="134" width="120" height="80" as="geometry" />
        </mxCell>
        <mxCell id="Gg9Wshna6DesjAM7AStG-16" value="Visualizar los productos dentro del resturante" style="ellipse;whiteSpace=wrap;html=1;labelBackgroundColor=none;fillColor=#F2CC8F;strokeColor=#E07A5F;fontColor=#393C56;" parent="1" vertex="1">
          <mxGeometry x="395" y="247" width="120" height="80" as="geometry" />
        </mxCell>
        <mxCell id="Gg9Wshna6DesjAM7AStG-21" value="" style="endArrow=none;html=1;rounded=0;fontSize=12;startSize=8;endSize=8;curved=1;entryX=0.5;entryY=0.5;entryDx=0;entryDy=0;entryPerimeter=0;exitX=0;exitY=0.5;exitDx=0;exitDy=0;labelBackgroundColor=none;strokeColor=#E07A5F;fontColor=default;" parent="1" source="Gg9Wshna6DesjAM7AStG-8" target="Gg9Wshna6DesjAM7AStG-1" edge="1">
          <mxGeometry width="50" height="50" relative="1" as="geometry">
            <mxPoint x="214" y="300" as="sourcePoint" />
            <mxPoint x="264" y="250" as="targetPoint" />
          </mxGeometry>
        </mxCell>
        <mxCell id="Gg9Wshna6DesjAM7AStG-22" value="" style="endArrow=none;html=1;rounded=0;fontSize=12;startSize=8;endSize=8;curved=1;entryX=0.5;entryY=0.5;entryDx=0;entryDy=0;entryPerimeter=0;exitX=0;exitY=0.5;exitDx=0;exitDy=0;labelBackgroundColor=none;strokeColor=#E07A5F;fontColor=default;" parent="1" source="Gg9Wshna6DesjAM7AStG-10" target="Gg9Wshna6DesjAM7AStG-1" edge="1">
          <mxGeometry width="50" height="50" relative="1" as="geometry">
            <mxPoint x="181" y="48" as="sourcePoint" />
            <mxPoint x="77" y="125" as="targetPoint" />
          </mxGeometry>
        </mxCell>
        <mxCell id="Gg9Wshna6DesjAM7AStG-24" value="" style="endArrow=none;html=1;rounded=0;fontSize=12;startSize=8;endSize=8;curved=1;entryX=0.5;entryY=0.5;entryDx=0;entryDy=0;entryPerimeter=0;exitX=0;exitY=0.5;exitDx=0;exitDy=0;labelBackgroundColor=none;strokeColor=#E07A5F;fontColor=default;" parent="1" source="Gg9Wshna6DesjAM7AStG-13" target="Gg9Wshna6DesjAM7AStG-1" edge="1">
          <mxGeometry width="50" height="50" relative="1" as="geometry">
            <mxPoint x="201" y="68" as="sourcePoint" />
            <mxPoint x="97" y="145" as="targetPoint" />
          </mxGeometry>
        </mxCell>
        <mxCell id="Gg9Wshna6DesjAM7AStG-25" value="" style="endArrow=none;html=1;rounded=0;fontSize=12;startSize=8;endSize=8;curved=1;entryX=0.5;entryY=0.5;entryDx=0;entryDy=0;entryPerimeter=0;exitX=0;exitY=0.5;exitDx=0;exitDy=0;labelBackgroundColor=none;strokeColor=#E07A5F;fontColor=default;" parent="1" source="Gg9Wshna6DesjAM7AStG-9" target="Gg9Wshna6DesjAM7AStG-1" edge="1">
          <mxGeometry width="50" height="50" relative="1" as="geometry">
            <mxPoint x="211" y="78" as="sourcePoint" />
            <mxPoint x="107" y="155" as="targetPoint" />
          </mxGeometry>
        </mxCell>
        <mxCell id="Gg9Wshna6DesjAM7AStG-26" value="" style="endArrow=none;html=1;rounded=0;fontSize=12;startSize=8;endSize=8;curved=1;entryX=1;entryY=0.5;entryDx=0;entryDy=0;exitX=0.5;exitY=0.5;exitDx=0;exitDy=0;exitPerimeter=0;labelBackgroundColor=none;strokeColor=#E07A5F;fontColor=default;" parent="1" source="Gg9Wshna6DesjAM7AStG-2" target="Gg9Wshna6DesjAM7AStG-13" edge="1">
          <mxGeometry width="50" height="50" relative="1" as="geometry">
            <mxPoint x="221" y="88" as="sourcePoint" />
            <mxPoint x="117" y="165" as="targetPoint" />
          </mxGeometry>
        </mxCell>
        <mxCell id="Gg9Wshna6DesjAM7AStG-29" value="" style="endArrow=none;html=1;rounded=0;fontSize=12;startSize=8;endSize=8;curved=1;entryX=1;entryY=0.5;entryDx=0;entryDy=0;exitX=0.5;exitY=0.5;exitDx=0;exitDy=0;exitPerimeter=0;labelBackgroundColor=none;strokeColor=#E07A5F;fontColor=default;" parent="1" source="Gg9Wshna6DesjAM7AStG-2" target="Gg9Wshna6DesjAM7AStG-14" edge="1">
          <mxGeometry width="50" height="50" relative="1" as="geometry">
            <mxPoint x="649" y="77" as="sourcePoint" />
            <mxPoint x="403" y="-53" as="targetPoint" />
          </mxGeometry>
        </mxCell>
        <mxCell id="Gg9Wshna6DesjAM7AStG-30" value="" style="endArrow=none;html=1;rounded=0;fontSize=12;startSize=8;endSize=8;curved=1;entryX=1;entryY=0.5;entryDx=0;entryDy=0;exitX=0.5;exitY=0.5;exitDx=0;exitDy=0;exitPerimeter=0;labelBackgroundColor=none;strokeColor=#E07A5F;fontColor=default;" parent="1" source="Gg9Wshna6DesjAM7AStG-2" target="Gg9Wshna6DesjAM7AStG-15" edge="1">
          <mxGeometry width="50" height="50" relative="1" as="geometry">
            <mxPoint x="659" y="87" as="sourcePoint" />
            <mxPoint x="413" y="-43" as="targetPoint" />
          </mxGeometry>
        </mxCell>
        <mxCell id="Gg9Wshna6DesjAM7AStG-32" value="" style="endArrow=none;html=1;rounded=0;fontSize=12;startSize=8;endSize=8;curved=1;entryX=0.5;entryY=0.5;entryDx=0;entryDy=0;exitX=0.992;exitY=0.417;exitDx=0;exitDy=0;exitPerimeter=0;entryPerimeter=0;labelBackgroundColor=none;strokeColor=#E07A5F;fontColor=default;" parent="1" source="Gg9Wshna6DesjAM7AStG-16" target="Gg9Wshna6DesjAM7AStG-2" edge="1">
          <mxGeometry width="50" height="50" relative="1" as="geometry">
            <mxPoint x="890" y="406" as="sourcePoint" />
            <mxPoint x="644" y="276" as="targetPoint" />
          </mxGeometry>
        </mxCell>
      </root>
    </mxGraphModel>
  </diagram>
</mxfile>
